<svg width="82" height="82" viewBox="0 0 82 82" fill="none" xmlns="http://www.w3.org/2000/svg">
<path d="M57.2479 1.42383H24.47C11.5834 1.42383 1.13672 11.8707 1.13672 24.7573V57.5352C1.13672 70.4218 11.5834 80.8682 24.47 80.8682H57.2479C70.1345 80.8682 80.5812 70.4218 80.5812 57.5352V24.7573C80.5812 11.8707 70.1345 1.42383 57.2479 1.42383Z" stroke="white" stroke-miterlimit="10"/>
<path d="M14.8824 57.3784C12.2075 56.4404 10.1086 55.2798 8.58594 53.8984L12.9962 46.1938C14.4839 47.3984 16.264 48.4434 18.3362 49.3286C20.4085 50.2144 22.1354 50.6567 23.5169 50.6567C24.5082 50.6567 25.2878 50.5425 25.8548 50.3115C26.421 50.0815 26.705 49.6655 26.705 49.063C26.705 48.5674 26.3597 48.1157 25.6689 47.708C24.9782 47.3013 23.8174 46.7607 22.1885 46.0874C19.8855 45.1309 17.9552 44.2012 16.3968 43.2979C14.8376 42.3945 13.4743 41.1724 12.3054 39.6313C11.1364 38.0903 10.5519 36.2041 10.5519 33.9727C10.5519 31.7764 11.1273 29.8901 12.2788 28.3135C13.4295 26.7378 14.9621 25.5425 16.875 24.7271C18.7879 23.9126 20.8419 23.5049 23.0387 23.5049C25.6598 23.5049 28.06 23.9219 30.2385 24.7534C32.4171 25.5864 34.1614 26.6929 35.4724 28.0747L31.1152 35.5137C30.0168 34.5571 28.7773 33.7783 27.3958 33.1753C26.0143 32.5737 24.7208 32.272 23.5169 32.272C22.773 32.272 22.1968 32.3784 21.79 32.5908C21.3824 32.8037 21.179 33.1938 21.179 33.7598C21.179 34.4692 21.5858 35.0708 22.4011 35.5664C23.2156 36.063 24.4908 36.665 26.2268 37.373C28.3871 38.2593 30.1937 39.1182 31.6466 39.9502C33.0987 40.7832 34.3565 41.9253 35.4192 43.3774C36.4818 44.8306 37.0132 46.6187 37.0132 48.7441C37.0132 50.8345 36.4022 52.6411 35.1801 54.1641C33.9579 55.6875 32.3456 56.8389 30.3448 57.6177C28.3431 58.3965 26.1911 58.7866 23.8889 58.7866C20.5588 58.7866 17.5566 58.3169 14.8824 57.3784Z" fill="white"/>
<path d="M48.143 56.5288C45.4331 55.0596 43.3426 52.9688 41.873 50.2588C40.4027 47.5488 39.668 44.4058 39.668 40.8276C39.668 37.4624 40.4384 34.478 41.9794 31.874C43.5203 29.2705 45.654 27.2339 48.3821 25.7637C51.1094 24.2939 54.1913 23.5586 57.6276 23.5586C60.4969 23.5586 63.1088 24.002 65.4651 24.8867C67.8204 25.7729 69.7067 26.9951 71.124 28.5532L65.3322 35.6733C64.4821 34.8589 63.4011 34.1855 62.091 33.6543C60.78 33.123 59.4517 32.8574 58.1058 32.8574C55.5902 32.8574 53.6599 33.5303 52.3141 34.8765C50.9675 36.2231 50.295 38.2065 50.295 40.8276C50.295 43.6621 50.9766 45.8843 52.3407 47.4961C53.7039 49.1084 55.6616 49.9136 58.2121 49.9136C58.9203 49.9136 59.6642 49.8257 60.4438 49.6479V46.3003H54.7584V37.958H70.8051V54.1646C69.7067 55.4751 67.891 56.5644 65.3588 57.4321C62.8257 58.2998 60.2487 58.7339 57.6276 58.7339C54.0145 58.7339 50.8529 57.999 48.143 56.5288Z" fill="#FF624A"/>
</svg>
