<svg width="55" height="55" viewBox="0 0 55 55" fill="none" xmlns="http://www.w3.org/2000/svg">
<path d="M36.9019 0.0605469H18.4805C8.53934 0.0605469 0.480469 8.11942 0.480469 18.0605V36.4822C0.480469 46.4233 8.53934 54.4822 18.4805 54.4822H36.9019C46.843 54.4822 54.9019 46.4233 54.9019 36.4822V18.0605C54.9019 8.11942 46.843 0.0605469 36.9019 0.0605469Z" fill="#FF624A"/>
<path d="M27.6909 23.1453C32.2319 23.1453 35.9131 19.4641 35.9131 14.9231C35.9131 10.3821 32.2319 6.70117 27.6909 6.70117C23.15 6.70117 19.4688 10.3821 19.4688 14.9231C19.4688 19.4641 23.15 23.1453 27.6909 23.1453Z" fill="#0E0E0F"/>
<path d="M27.6895 47.8408C19.5896 47.8408 13.0234 42.9592 13.0234 35.0222C13.0234 27.0852 27.6895 26.5039 27.6895 26.5039C27.6895 26.5039 42.3552 27.0851 42.3552 35.0222C42.3552 42.9593 35.7891 47.8408 27.6895 47.8408Z" fill="#0E0E0F"/>
</svg>
