<svg width="38" height="37" viewBox="0 0 38 37" fill="none" xmlns="http://www.w3.org/2000/svg">
<path d="M19.176 35.4565C28.4679 35.4565 36.0005 27.924 36.0005 18.6321C36.0005 9.34019 28.4679 1.80762 19.176 1.80762C9.88413 1.80762 2.35156 9.34019 2.35156 18.6321C2.35156 27.924 9.88413 35.4565 19.176 35.4565Z" stroke="#FF624A" stroke-width="3" stroke-miterlimit="10"/>
<path d="M18.9871 13.499C18.0401 13.499 17.2857 13.2402 16.723 12.7222C16.1603 12.2041 15.8789 11.561 15.8789 10.793C15.8789 10.0249 16.1603 9.38623 16.723 8.87695C17.2857 8.36767 18.0401 8.11328 18.9871 8.11328C19.9157 8.11328 20.666 8.35449 21.2379 8.83691C21.8094 9.31933 22.0953 9.93555 22.0953 10.6855C22.0953 11.4893 21.8139 12.1592 21.2512 12.6953C20.6885 13.231 19.9338 13.499 18.9871 13.499ZM16.4416 29.6294V15.0801H21.5326V29.6294H16.4416Z" fill="#FF624A"/>
</svg>
