<svg width="70" height="29" viewBox="0 0 70 29" fill="none" xmlns="http://www.w3.org/2000/svg">
<path d="M55.2401 0.945312H14.1807C6.4611 0.945312 0.203125 7.20317 0.203125 14.9227V15.0199C0.203125 22.7395 6.4611 28.9973 14.1807 28.9973H55.2401C62.9597 28.9973 69.2177 22.7395 69.2177 15.0199V14.9227C69.2177 7.20317 62.9597 0.945312 55.2401 0.945312Z" fill="#FF624A"/>
<path d="M10.3582 6.60547C11.8586 7.59473 13.3596 8.72875 14.8606 10.0079C16.3613 11.2871 17.6748 12.5579 18.8005 13.8198V6.88684H23.7891V23.3365H19.5679C18.7493 21.7164 17.781 20.2114 16.6643 18.8212C15.5471 17.4313 14.2124 16.003 12.6606 14.5361V23.3367H7.67188V6.60559L10.3582 6.60547Z" fill="#0E0E0F"/>
<path d="M26.8594 6.91211H37.553V11.2611H31.8481V13.0007H36.7087V17.1451H31.8481V18.9871H38.0134V23.3362H26.8594V6.91211Z" fill="#0E0E0F"/>
<path d="M41.5186 16.9149C40.9045 14.9027 40.4014 13.0136 40.0093 11.2483C39.6167 9.48315 39.3782 8.03772 39.293 6.91211H44.2048C44.2727 7.86743 44.5029 9.14661 44.8955 10.7495C45.2876 12.3528 45.7654 14.0413 46.3281 15.8148L46.5073 16.3777H46.6096C46.9165 15.5078 47.1936 14.5573 47.4409 13.5251C47.688 12.4935 47.863 11.6193 47.9656 10.903H53.082C53.1672 11.6025 53.3291 12.4635 53.5681 13.4868C53.8066 14.5101 54.0798 15.4739 54.3867 16.3777H54.5403L54.7192 15.8148C55.2649 14.1096 55.7383 12.4468 56.1392 10.8262C56.5398 9.20605 56.7998 7.90137 56.9194 6.91211H61.7546C61.6523 8.20837 61.4048 9.7561 61.0127 11.5553C60.6201 13.3549 60.1257 15.1414 59.5288 16.9149C58.6592 19.5244 57.866 21.6649 57.1497 23.3362H52.6472C52.3401 22.7566 51.9949 22.0018 51.6111 21.0721C51.2273 20.1427 50.8904 19.2858 50.6006 18.5011H50.447C50.1567 19.2858 49.8203 20.1427 49.4365 21.0721C49.0527 22.0018 48.7073 22.7566 48.4004 23.3362H43.9233C42.917 21.0509 42.1155 18.9104 41.5186 16.9149Z" fill="#0E0E0F"/>
</svg>
