<svg width="27" height="21" viewBox="0 0 27 21" fill="none" xmlns="http://www.w3.org/2000/svg">
<path d="M25.4908 0.546875H1.70703C0.910946 0.546875 0.265625 1.1922 0.265625 1.98828C0.265625 2.78437 0.910946 3.42981 1.70703 3.42981H25.4908C26.2869 3.42981 26.9323 2.78437 26.9323 1.98828C26.9323 1.1922 26.2869 0.546875 25.4908 0.546875Z" fill="#FF624A"/>
<path d="M25.4908 8.92383H1.70703C0.910946 8.92383 0.265625 9.56915 0.265625 10.3652C0.265625 11.1613 0.910946 11.8066 1.70703 11.8066H25.4908C26.2869 11.8066 26.9323 11.1613 26.9323 10.3652C26.9323 9.56915 26.2869 8.92383 25.4908 8.92383Z" fill="#FF624A"/>
<path d="M25.4908 17.3008H1.70703C0.910946 17.3008 0.265625 17.9461 0.265625 18.7422C0.265625 19.5383 0.910946 20.1836 1.70703 20.1836H25.4908C26.2869 20.1836 26.9323 19.5383 26.9323 18.7422C26.9323 17.9461 26.2869 17.3008 25.4908 17.3008Z" fill="#FF624A"/>
</svg>
