<svg width="37" height="38" viewBox="0 0 37 38" fill="none" xmlns="http://www.w3.org/2000/svg">
<path d="M17.1562 22.583C17.1562 21.8437 17.2812 21.1934 17.5312 20.6328C17.7812 20.0742 18.0967 19.5742 18.4766 19.1328C18.8564 18.6934 19.2607 18.2832 19.6914 17.9043C20.1211 17.5234 20.5264 17.1543 20.9062 16.7939C21.2861 16.4336 21.5967 16.0547 21.8359 15.6543C22.0762 15.2539 22.1963 14.8047 22.1963 14.3037C22.1963 13.4639 21.8613 12.7891 21.1914 12.2793C20.5215 11.7695 19.5967 11.5137 18.417 11.5137C17.3564 11.5137 16.417 11.709 15.5967 12.0996C14.7764 12.4893 14.0967 13.0547 13.5566 13.7939L10.6777 11.9043C11.4971 10.7637 12.5869 9.86914 13.9473 9.21875C15.3066 8.57031 16.9062 8.24414 18.7461 8.24414C20.2266 8.24414 21.5166 8.45898 22.6162 8.88965C23.7158 9.32032 24.5762 9.93945 25.1963 10.75C25.8154 11.5586 26.126 12.5342 26.126 13.6738C26.126 14.5137 26.0059 15.2285 25.7656 15.8184C25.5264 16.4082 25.2109 16.9287 24.8213 17.3789C24.4307 17.8281 24.0107 18.248 23.5615 18.6387C23.1113 19.0283 22.6914 19.4141 22.3008 19.793C21.9111 20.1738 21.5908 20.5884 21.3408 21.0386C21.0908 21.4888 20.9668 22.0039 20.9668 22.583H17.1562ZM19.0762 29.752C18.3965 29.752 17.832 29.5234 17.3818 29.0625C16.9316 28.6025 16.707 28.0527 16.707 27.4121C16.707 26.7734 16.9316 26.2285 17.3818 25.7773C17.832 25.3281 18.3965 25.1035 19.0762 25.1035C19.7969 25.1035 20.376 25.3281 20.8164 25.7773C21.2559 26.2285 21.4766 26.7734 21.4766 27.4121C21.4766 28.0527 21.2559 28.6025 20.8164 29.0625C20.376 29.5234 19.7969 29.752 19.0762 29.752Z" fill="#FF624A"/>
<path d="M18.5667 35.9058C27.8585 35.9058 35.3911 28.3729 35.3911 19.0811C35.3911 9.78916 27.8585 2.25684 18.5667 2.25684C9.27476 2.25684 1.74219 9.78916 1.74219 19.0811C1.74219 28.3729 9.27476 35.9058 18.5667 35.9058Z" stroke="#FF624A" stroke-width="3" stroke-miterlimit="10"/>
</svg>
