<svg width="35" height="32" viewBox="0 0 35 32" fill="none" xmlns="http://www.w3.org/2000/svg">
<path d="M11.8437 3.22535L0.947562 22.0979C-1.4451 26.2421 1.54579 31.4226 6.33111 31.4226H28.1233C32.9087 31.4226 35.8994 26.2421 33.5068 22.0979L22.6106 3.22535C20.218 -0.918868 14.2364 -0.918868 11.8437 3.22535Z" fill="#FF624A"/>
<path d="M17.252 26.2549C16.6367 26.2549 16.127 26.0527 15.7236 25.6484C15.3193 25.2451 15.1172 24.7617 15.1172 24.1992C15.1172 23.6367 15.3193 23.1582 15.7236 22.7627C16.127 22.3672 16.6367 22.1699 17.252 22.1699C17.8672 22.1699 18.3672 22.3672 18.7539 22.7627C19.1406 23.1582 19.334 23.6367 19.334 24.1992C19.334 24.7617 19.1406 25.2451 18.7539 25.6484C18.3672 26.0527 17.8672 26.2549 17.252 26.2549ZM15.9346 19.9561L15.3018 7.62305H19.2021L18.5166 19.9561H15.9346Z" fill="#240E3F"/>
</svg>
