<svg width="52" height="49" viewBox="0 0 52 49" fill="none" xmlns="http://www.w3.org/2000/svg">
<path d="M4.20599 8.24982C5.50414 8.24982 6.55649 7.19747 6.55649 5.89932C6.55649 4.60118 5.50414 3.54883 4.20599 3.54883C2.90785 3.54883 1.85547 4.60118 1.85547 5.89932C1.85547 7.19747 2.90785 8.24982 4.20599 8.24982Z" fill="#0E0E0F"/>
<path d="M48.9848 17.2363H40.1289V26.0922H48.9848V17.2363Z" fill="#FF624A"/>
<path d="M11.6488 17.2363H2.79297V26.0922H11.6488V17.2363Z" fill="#FF624A"/>
<path d="M24.0941 17.2363H15.2383V26.0922H24.0941V17.2363Z" fill="#FF624A"/>
<path d="M51.556 46H0.222656V48.3573H51.556V46Z" fill="#FF624A"/>
<path d="M36.5395 17.2363H27.6836V26.0922H36.5395V17.2363Z" fill="#FF624A"/>
<path d="M11.6488 30.748H2.79297V39.6039H11.6488V30.748Z" fill="#FF624A"/>
<path d="M36.5395 30.748H27.6836V39.6039H36.5395V30.748Z" fill="#FF624A"/>
<path d="M24.0941 30.748H15.2383V39.6039H24.0941V30.748Z" fill="#FF624A"/>
<path d="M48.9848 30.748H40.1289V39.6039H48.9848V30.748Z" fill="#FF624A"/>
<path d="M46.6357 8.24982C47.9338 8.24982 48.9861 7.19747 48.9861 5.89932C48.9861 4.60118 47.9338 3.54883 46.6357 3.54883C45.3375 3.54883 44.2852 4.60118 44.2852 5.89932C44.2852 7.19747 45.3375 8.24982 46.6357 8.24982Z" fill="#0E0E0F"/>
<path d="M51.556 0.978516H0.222656V10.8199H51.556V0.978516Z" fill="#FF624A"/>
</svg>
