<svg width="27" height="28" viewBox="0 0 27 28" fill="none" xmlns="http://www.w3.org/2000/svg">
<path d="M15.0547 0.730469H21.5018C21.6358 0.753639 21.7694 0.778484 21.9037 0.799744C24.8478 1.26606 26.9557 3.71561 26.9603 6.70328C26.9678 11.5244 26.9656 16.3456 26.9568 21.1668C26.956 21.5847 26.9154 22.011 26.8264 22.4188C26.2146 25.2224 23.8497 27.1218 20.976 27.1303C19.0939 27.1358 17.2119 27.1315 15.3298 27.1308C15.2468 27.1308 15.1637 27.123 15.0613 27.1179V26.7697C15.0613 18.2016 15.0613 9.63346 15.061 1.06534C15.061 0.953718 15.0569 0.842089 15.0547 0.730469ZM21.0046 11.6068C19.2808 11.6088 17.8815 13.0173 17.885 14.7468C17.8885 16.4574 19.2929 17.8587 21.0057 17.8605C22.733 17.8623 24.1388 16.4589 24.1387 14.7328C24.1385 13.0063 22.7333 11.6047 21.0046 11.6068Z" fill="white"/>
<path d="M6.02966 0.730469H13.5083C13.5056 0.850609 13.5006 0.970741 13.5006 1.09088C13.5002 9.65693 13.5002 18.223 13.5002 26.789V27.1196C13.4148 27.1242 13.3643 27.1294 13.3137 27.1294C11.0111 27.1292 8.70829 27.145 6.40588 27.1237C3.7491 27.0991 1.43603 25.2704 0.770142 22.6992C0.682592 22.3611 0.63082 22.0138 0.5625 21.6707C0.5625 16.513 0.5625 11.3553 0.5625 6.19763C0.58 6.13256 0.60669 6.06847 0.61377 6.00229C0.86539 3.64965 2.56041 1.62595 4.82959 0.988892C5.22283 0.878492 5.62927 0.815409 6.02966 0.730469ZM11.9569 2.26968C11.8497 2.26968 11.7728 2.26968 11.6959 2.26968C9.96811 2.2697 8.24037 2.26616 6.51257 2.2706C4.04094 2.27695 2.1042 4.21931 2.10266 6.69705C2.09967 11.5195 2.09982 16.3419 2.10254 21.1643C2.10395 23.6554 4.04047 25.5922 6.53198 25.5979C8.25119 25.6018 9.97049 25.5987 11.6897 25.5987H11.9569V2.26968Z" fill="white"/>
<path d="M10.146 8.49837C10.1431 10.2076 8.72517 11.6146 7.01526 11.6049C5.31762 11.5954 3.9193 10.1859 3.92188 8.48686C3.92448 6.77921 5.34306 5.37179 7.05249 5.3809C8.75094 5.38995 10.1489 6.79868 10.146 8.49837Z" fill="white"/>
</svg>
