<svg width="26" height="27" viewBox="0 0 26 27" fill="none" xmlns="http://www.w3.org/2000/svg">
<path d="M13.9062 26.1094H12.3454C11.8567 26.0438 11.3643 25.9975 10.8796 25.9094C7.49059 25.2933 4.75304 23.6018 2.71531 20.8319C0.721 18.1211 -0.0668432 15.0628 0.310037 11.7179C0.626527 8.909 1.78247 6.47808 3.69993 4.4093C4.10716 3.96994 4.61963 3.66565 5.23289 3.73166C5.69216 3.78109 6.15304 3.91908 6.58592 4.08789C7.69325 4.5197 8.63576 5.22264 9.52537 5.99563C9.93469 6.35129 10.3198 6.73487 10.7209 7.11053C10.6683 7.17385 10.6442 7.20711 10.6159 7.23617C8.85926 9.03973 7.32527 11.0201 5.9614 13.1328C4.54744 15.323 3.61752 17.6894 3.4614 20.3159C3.43215 20.8081 3.51458 21.3068 3.54539 21.8025L3.62644 21.8022C3.64072 21.7644 3.65632 21.727 3.66917 21.6887C3.83658 21.1904 3.95637 20.6696 4.17918 20.1975C5.03469 18.3846 6.22935 16.7885 7.54563 15.2982C8.93316 13.7272 10.4132 12.2378 11.8591 10.7187C12.2564 10.3014 12.6761 9.90538 13.0918 9.49331C13.1315 9.5277 13.1641 9.55322 13.1936 9.58175C15.6578 11.9633 18.0026 14.4557 20.1489 17.1295C21.201 18.44 22.0462 19.8707 22.5405 21.4908C22.5764 21.6084 22.6288 21.721 22.6736 21.8359L22.664 21.8265C22.2286 22.2546 21.8195 22.7139 21.3533 23.1053C19.4997 24.6613 17.37 25.6191 14.9712 25.9667C14.6167 26.018 14.2613 26.062 13.9062 26.1094Z" fill="white"/>
<path d="M22.6736 21.8362C22.7236 21.3373 22.7919 20.8394 22.8201 20.3393C22.9014 18.8944 22.578 17.5257 21.9871 16.2164C20.8393 13.6736 19.273 11.4047 17.4299 9.32182C16.7862 8.59428 16.1176 7.88866 15.4414 7.15241C15.6972 6.92315 15.951 6.68413 16.2168 6.45936C17.4963 5.37752 18.8608 4.43126 20.4282 3.80305C21.1474 3.51482 21.7714 3.68814 22.2942 4.2003C23.2415 5.12839 23.9936 6.20584 24.5938 7.38816C25.3692 8.91596 25.8237 10.5338 25.946 12.2441C25.9513 12.3178 25.9746 12.3903 25.9895 12.4633V13.974C25.9751 14.0388 25.9518 14.103 25.9473 14.1685C25.8178 16.0461 25.2885 17.8059 24.3787 19.4503C23.9029 20.3102 23.3538 21.1199 22.6641 21.8268L22.6736 21.8362Z" fill="white"/>
<path d="M19.9871 2.371C19.0073 1.99754 18.0871 2.28062 17.1843 2.63659C15.7693 3.19452 14.5144 4.03151 13.3064 4.94027C13.1291 5.07364 13.027 5.06127 12.8618 4.93545C11.7463 4.08595 10.5851 3.30683 9.30493 2.72195C8.72469 2.45686 8.13255 2.20731 7.4873 2.17663C7.10167 2.15829 6.71247 2.21586 6.38672 2.23556C10.0404 -0.260339 15.9469 -0.394972 19.9871 2.371Z" fill="white"/>
</svg>
