<svg width="29" height="26" viewBox="0 0 29 26" fill="none" xmlns="http://www.w3.org/2000/svg">
<path d="M0.0507812 19.7329V4.48557C0.264721 4.02519 0.624974 3.87414 1.12817 3.875C7.59838 3.88599 14.0686 3.88221 20.5388 3.8823C21.2535 3.8823 21.5505 4.18049 21.5505 4.89844C21.5507 9.69628 21.5507 14.4941 21.5507 19.2919C21.5506 20.0476 21.2635 20.3362 20.5116 20.3362C14.0596 20.3362 7.60769 20.3324 1.15576 20.3437C0.646232 20.3446 0.270031 20.207 0.0507812 19.7329Z" fill="white"/>
<path d="M18.2581 21.9824C19.0475 21.9824 19.8043 21.9829 20.561 21.9823C22.1474 21.9812 23.1936 20.9417 23.1939 19.3624C23.1948 14.5282 23.1948 9.69407 23.1939 4.85989C23.1936 3.27724 22.1505 2.23896 20.5635 2.23776C19.8066 2.23719 19.0496 2.23767 18.2695 2.23767C18.2695 1.90347 18.239 1.58368 18.2769 1.27221C18.3275 0.856644 18.6853 0.594027 19.1413 0.593167C20.4298 0.590727 21.7184 0.592292 23.0069 0.592282C24.3959 0.592282 25.7848 0.591766 27.1739 0.592496C27.8134 0.592836 28.1301 0.910772 28.1302 1.55395C28.1306 9.13875 28.1307 16.7235 28.1303 24.3083C28.1303 24.9527 27.8139 25.2728 27.1766 25.2729C24.5173 25.2736 21.858 25.2737 19.1988 25.2728C18.5796 25.2726 18.2592 24.9478 18.2583 24.3227C18.2573 23.5559 18.2581 22.7891 18.2581 21.9824ZM26.4839 17.0499C26.4863 16.6057 26.1175 16.2303 25.6729 16.2243C25.2287 16.2183 24.85 16.5842 24.8406 17.0284C24.831 17.483 25.2107 17.8697 25.6651 17.8679C26.1092 17.8663 26.4816 17.4944 26.4839 17.0499ZM25.6585 19.5151C25.2142 19.5171 24.842 19.8896 24.8406 20.3337C24.8392 20.778 25.2084 21.1532 25.6524 21.1587C26.1072 21.1644 26.4898 20.7814 26.4839 20.3263C26.4782 19.882 26.1028 19.5131 25.6585 19.5151Z" fill="white"/>
<path d="M8.33268 21.9922H13.2691C13.2691 22.2416 13.2673 22.4847 13.2693 22.7278C13.274 23.2916 13.6091 23.6238 14.1785 23.6265C14.6901 23.6289 15.2017 23.6251 15.7133 23.6276C16.2443 23.6301 16.6149 23.9715 16.6134 24.4515C16.612 24.9316 16.242 25.2715 15.709 25.2717C12.4568 25.273 9.20445 25.273 5.95219 25.2718C5.41836 25.2716 5.04732 24.9348 5.04301 24.4564C5.0386 23.9679 5.41434 23.6291 5.96574 23.6273C6.45906 23.6258 6.95242 23.6298 7.44572 23.6262C7.99231 23.6221 8.32682 23.283 8.33231 22.7325C8.33467 22.4957 8.33268 22.2588 8.33268 21.9922Z" fill="white"/>
</svg>
