<svg width="31" height="30" viewBox="0 0 31 30" fill="none" xmlns="http://www.w3.org/2000/svg">
<path d="M16.3022 0.121094C16.8637 0.196834 17.4289 0.252373 17.9862 0.351593C21.4012 0.959523 24.2581 2.57561 26.552 5.1698C28.6376 7.52842 29.8549 10.2913 30.162 13.42C30.5412 17.2835 29.5641 20.7999 27.2045 23.8915C24.9932 26.7887 22.0904 28.6631 18.516 29.4026C14.112 30.3137 10.0685 29.411 6.479 26.7013C3.56203 24.4992 1.72638 21.5676 0.952515 17.9896C0.818675 17.3708 0.768375 16.7339 0.678345 16.1055C0.663615 16.0027 0.64291 15.9007 0.625 15.7983V14.0628C0.64865 13.8547 0.672773 13.6467 0.695923 13.4385C1.05039 10.2517 2.26744 7.4405 4.41541 5.05698C6.69595 2.52635 9.5216 0.9466 12.8835 0.35144C13.4407 0.2528 14.0055 0.196794 14.5668 0.121094C15.1453 0.121094 15.7237 0.121094 16.3022 0.121094ZM15.4326 1.69211C8.14863 1.69503 2.20378 7.63837 2.19604 14.9254C2.18831 22.203 8.12843 28.1511 15.4221 28.1691C22.7025 28.187 28.6864 22.2046 28.673 14.9214C28.6596 7.63043 22.7134 1.6892 15.4326 1.69211Z" fill="white"/>
<path d="M12.7041 5.47656C13.2296 5.62333 13.7284 5.7592 14.2252 5.9021C15.5751 6.29033 16.9378 6.64055 18.2695 7.08368C19.4744 7.48462 20.5362 8.14106 21.2986 9.20248C21.7768 9.86831 22.0577 10.6151 22.1273 11.422C22.2113 12.395 22.1686 13.3654 21.8573 14.3083C21.3726 15.7766 20.3174 16.3535 18.8197 15.9574C18.2208 15.799 17.9214 15.4129 17.9215 14.7992C17.922 13.035 17.9196 11.2709 17.9253 9.50677C17.9266 9.09525 17.7605 8.78297 17.432 8.54901C17.2251 8.40163 16.998 8.32778 16.7532 8.43411C16.513 8.53841 16.4371 8.7585 16.415 8.9985C16.4018 9.14213 16.4025 9.28732 16.4022 9.43182C16.3935 14.0301 16.3854 18.6284 16.3773 23.2267C16.3771 23.3503 16.3773 23.4739 16.3773 23.6315C16.259 23.5979 16.1772 23.5788 16.098 23.5516C15.0514 23.1924 14.0069 22.8271 12.9574 22.4765C12.771 22.4142 12.7072 22.3318 12.7072 22.1318C12.7047 16.6756 12.6951 11.2194 12.6875 5.76312C12.6874 5.67961 12.697 5.59608 12.7041 5.47656Z" fill="white"/>
<path d="M17.1174 23.3675C17.1174 22.679 17.1243 22.0142 17.1133 21.3496C17.1099 21.1389 17.2625 21.1257 17.3896 21.0791C18.9887 20.4926 20.5902 19.9123 22.1884 19.3233C22.603 19.1705 23.0174 19.0115 23.4129 18.8167C23.5429 18.7527 23.6128 18.5667 23.7101 18.4365C23.5806 18.3488 23.4616 18.2124 23.3198 18.1818C22.6369 18.0344 21.9556 18.0905 21.2971 18.3119C20.0112 18.7441 18.7316 19.1951 17.4494 19.6384C17.3516 19.6722 17.2541 19.7065 17.1193 19.7535C17.1193 19.0048 17.1146 18.2948 17.1276 17.5851C17.1287 17.5239 17.2369 17.4367 17.3127 17.409C19.0595 16.7723 20.8546 16.5232 22.7087 16.7417C23.7255 16.8616 24.74 17.0129 25.6782 17.4336C26.1065 17.6257 26.5217 17.9087 26.8536 18.2399C27.3049 18.6903 27.2684 19.1544 26.7817 19.5652C26.4409 19.8528 26.0546 20.1277 25.6415 20.2817C22.8465 21.3237 20.0389 22.3321 17.235 23.3505C17.2094 23.3599 17.1798 23.3589 17.1174 23.3675Z" fill="white"/>
<path d="M11.941 15.7637C11.941 16.484 11.9492 17.1567 11.9302 17.8287C11.9279 17.9088 11.7903 18.0194 11.6927 18.0571C10.4813 18.5257 9.26511 18.9822 8.05174 19.4459C7.90893 19.5005 7.76774 19.5676 7.63963 19.6504C7.43754 19.7809 7.44056 19.943 7.64293 20.08C7.72047 20.1325 7.81342 20.1828 7.90379 20.1925C8.53613 20.2599 9.16877 20.3251 9.7899 20.1052C10.4681 19.865 11.1496 19.6342 11.8719 19.3847C11.8719 20.0239 11.8777 20.6456 11.8613 21.2666C11.86 21.3174 11.7141 21.3891 11.6257 21.4093C10.0122 21.7779 8.40887 21.6809 6.82029 21.266C6.22637 21.1108 5.63925 20.9229 5.06151 20.7154C4.82328 20.6298 4.59915 20.4759 4.40086 20.3136C3.81504 19.8343 3.82485 19.1034 4.46397 18.6881C4.97643 18.3552 5.52881 18.0605 6.09984 17.8452C7.90929 17.1632 9.73563 16.526 11.556 15.8731C11.6627 15.8348 11.7745 15.8105 11.941 15.7637Z" fill="white"/>
</svg>
