<svg width="22" height="23" viewBox="0 0 22 23" fill="none" xmlns="http://www.w3.org/2000/svg">
<path d="M2.60242 18.3201C2.74796 18.5034 2.89754 18.6834 3.05432 18.8569C4.86921 20.8653 7.42154 22.1925 10.2795 22.4136C10.3982 22.4227 10.5167 22.4319 10.6364 22.4372C10.6822 22.4393 10.7285 22.4392 10.7744 22.4407C10.8912 22.4444 11.0077 22.4496 11.1254 22.4496C11.2431 22.4496 11.3595 22.4444 11.4763 22.4407V22.4526L11.4935 22.4403C11.6186 22.4361 11.7431 22.4299 11.8671 22.4215C14.7417 22.2268 17.3138 20.913 19.1478 18.9103C19.3058 18.7377 19.457 18.5591 19.6038 18.3766C21.0812 16.5399 21.975 14.2161 22.0018 11.6871C22.0023 11.648 22.0048 11.6095 22.0048 11.5703C22.0048 11.3739 21.999 11.179 21.9886 10.9852C21.8602 8.5726 20.9419 6.3665 19.4884 4.62048C19.3384 4.4403 19.1813 4.2665 19.0201 4.09637C17.1953 2.16982 14.6764 0.909224 11.8671 0.718994C11.7431 0.710584 11.6186 0.704405 11.4935 0.700195L11.4763 0.687988V0.699768C11.3595 0.696048 11.2431 0.690857 11.1254 0.690857C11.0077 0.690857 10.8912 0.696048 10.7744 0.699768C10.7285 0.701268 10.6822 0.701227 10.6364 0.703247C10.5167 0.708567 10.3982 0.717739 10.2795 0.726929C7.48662 0.942939 4.98693 2.21653 3.18079 4.14874C3.02085 4.31985 2.86497 4.49465 2.71619 4.67578C1.28938 6.41295 0.389347 8.5981 0.262207 10.9852C0.251907 11.179 0.246094 11.3739 0.246094 11.5703C0.246094 11.6095 0.248623 11.648 0.249023 11.6871C0.275643 14.1904 1.15184 16.4923 2.60242 18.3201ZM13.536 21.4071C14.6497 20.2219 15.5647 18.8493 16.2284 17.3409C17.0188 17.6659 17.7713 18.0636 18.4794 18.5247C17.1621 19.9169 15.4563 20.9364 13.536 21.4071ZM18.981 17.9556C18.2071 17.4431 17.3812 17.0039 16.5128 16.6469C17.0969 15.1042 17.4229 13.4365 17.4379 11.6952H21.2513C21.2224 14.0655 20.3765 16.242 18.981 17.9556ZM21.2333 10.9449H17.4252C17.3545 9.30289 17.0058 7.73273 16.4274 6.27722C17.2762 5.93458 18.0846 5.51337 18.8445 5.02234C20.2194 6.64067 21.0954 8.69406 21.2333 10.9449ZM18.3313 4.46051C17.6378 4.8996 16.9025 5.27742 16.1322 5.58722C15.4774 4.16228 14.5971 2.86268 13.536 1.7334C15.3846 2.18651 17.0355 3.1473 18.3313 4.46051ZM11.5005 1.45074C11.7493 1.45986 11.9961 1.47699 12.2401 1.50385C13.5712 2.71874 14.6588 4.19466 15.427 5.84802C14.1877 6.26815 12.8696 6.5142 11.5005 6.55768V1.45074ZM11.5005 7.30792C12.9746 7.26353 14.393 6.99692 15.7244 6.53931C16.2721 7.91323 16.6045 9.39503 16.6749 10.9449H11.5005V7.30792ZM11.5005 11.6952H16.6876C16.6727 13.3427 16.364 14.9208 15.8115 16.3806C14.4551 15.9045 13.0067 15.6277 11.5005 15.5823V11.6952ZM11.5005 16.3326C12.9057 16.3773 14.2575 16.635 15.5253 17.0755C14.7531 18.8169 13.6292 20.3689 12.2401 21.6367C11.9961 21.6635 11.7493 21.6807 11.5005 21.6898V16.3326ZM3.72412 18.475C4.40975 18.0351 5.13618 17.6541 5.89795 17.3409C6.55405 18.8322 7.4555 20.1911 8.552 21.3671C6.67516 20.8737 5.01066 19.8532 3.72412 18.475ZM10.7502 21.6898C10.4522 21.6789 10.1579 21.6546 9.86694 21.6183C8.4869 20.3539 7.3696 18.8087 6.60107 17.0755C7.90619 16.622 9.30035 16.3625 10.7502 16.3295V21.6898ZM10.7502 15.5792C9.19932 15.6126 7.70848 15.8914 6.3147 16.3806C5.76214 14.9208 5.45354 13.3427 5.4386 11.6952H10.7502V15.5792ZM10.7502 10.9449H5.45129C5.52169 9.39503 5.85409 7.91323 6.40186 6.53931C7.77071 7.00979 9.2315 7.27838 10.7502 7.3111V10.9449ZM9.86694 1.52222C10.1579 1.48599 10.4522 1.46165 10.7502 1.45074V6.56079C9.3366 6.52868 7.97609 6.28093 6.69922 5.84808C7.46363 4.20282 8.54477 2.73369 9.86694 1.52222ZM8.552 1.7735C7.50782 2.89336 6.64108 4.1793 5.99402 5.58728C5.2525 5.289 4.54288 4.92846 3.87219 4.51013C5.13733 3.21069 6.74637 2.24817 8.552 1.7735ZM3.36182 5.07367C4.09843 5.5428 4.87986 5.9466 5.69897 6.27722C5.12053 7.73273 4.77172 9.3029 4.70105 10.9449H1.01758C1.15398 8.71811 2.01213 6.68394 3.36182 5.07367ZM4.68835 11.6952C4.70331 13.4364 5.02931 15.1042 5.6134 16.6469C4.77563 16.9912 3.9781 17.4131 3.22803 17.9025C1.85782 16.1971 1.02815 14.0413 0.999512 11.6952H4.68835Z" fill="#FF624A"/>
</svg>
