<svg width="42" height="43" viewBox="0 0 42 43" fill="none" xmlns="http://www.w3.org/2000/svg">
<path d="M21.0908 0.671875C9.54195 0.671875 0.179688 10.0341 0.179688 21.583C0.179688 33.1319 9.54195 42.4942 21.0908 42.4942C32.6397 42.4942 42.002 33.1319 42.002 21.5831C42.002 10.0341 32.6397 0.671875 21.0908 0.671875ZM21.0908 7.64182C24.2878 7.64182 26.8796 10.2335 26.8796 13.4306C26.8796 16.6276 24.2878 19.2194 21.0908 19.2194C17.8938 19.2194 15.302 16.6276 15.302 13.4306C15.302 10.2335 17.8938 7.64182 21.0908 7.64182ZM21.0908 36.6063C15.3881 36.6063 10.7654 33.1695 10.7654 27.5815C10.7654 21.9934 21.0908 21.5841 21.0908 21.5841C21.0908 21.5841 31.4163 21.9934 31.4163 27.5815C31.4163 33.1695 26.7933 36.6063 21.0908 36.6063Z" fill="#FF624A"/>
</svg>
