<svg width="216" height="216" viewBox="0 0 216 216" fill="none" xmlns="http://www.w3.org/2000/svg">
<path d="M107.778 0.103516C48.2544 0.103516 0 48.3572 0 107.881C0 167.405 48.2539 215.659 107.778 215.659C167.302 215.659 215.556 167.405 215.556 107.882C215.556 48.3575 167.302 0.103516 107.778 0.103516ZM107.778 36.0272C124.256 36.0272 137.614 49.3852 137.614 65.8629C137.614 82.3406 124.256 95.6988 107.778 95.6988C91.3008 95.6988 77.9426 82.3408 77.9426 65.8629C77.9426 49.3849 91.3003 36.0272 107.778 36.0272ZM107.778 185.313C78.3861 185.313 54.5597 167.599 54.5597 138.798C54.5597 109.997 107.778 107.887 107.778 107.887C107.778 107.887 160.996 109.996 160.996 138.798C160.996 167.599 137.169 185.313 107.778 185.313Z" fill="#FF624A"/>
</svg>
