<svg width="24" height="23" viewBox="0 0 24 23" fill="none" xmlns="http://www.w3.org/2000/svg">
<path d="M16.1129 2.89207C12.5093 -0.711466 6.64598 -0.711397 3.04244 2.89214C-0.561102 6.49568 -0.56098 12.3589 3.04256 15.9625C6.11104 19.0309 10.8171 19.4846 14.3721 17.3274L19.3892 22.3445C20.2313 23.1865 21.596 23.1919 22.4314 22.3565C23.2667 21.5212 23.2612 20.1566 22.4191 19.3145L17.4195 14.315C19.6421 10.7493 19.2083 5.98752 16.1129 2.89207ZM14.5015 14.3512C11.7866 17.0661 7.36902 17.066 4.65401 14.351C1.93906 11.6361 1.93895 7.2185 4.65389 4.50355C7.36884 1.7886 11.7866 1.78854 14.5015 4.50348C17.2166 7.21849 17.2165 11.6362 14.5015 14.3512Z" fill="#706F6F"/>
</svg>
