<svg width="51" height="50" viewBox="0 0 51 50" fill="none" xmlns="http://www.w3.org/2000/svg">
<path d="M35.3673 5.9924C27.4881 -1.88688 14.6676 -1.88674 6.7883 5.99253C-1.09098 13.8718 -1.09085 26.692 6.78842 34.5713C13.4978 41.2806 23.7877 42.2727 31.561 37.5558L42.531 48.5259C44.3722 50.367 47.3563 50.3787 49.1828 48.5522C51.0093 46.7257 50.9972 43.7419 49.1561 41.9008L38.2243 30.969C43.084 23.1725 42.1357 12.7607 35.3673 5.9924ZM31.8439 31.0482C25.9076 36.9845 16.2483 36.9843 10.3119 31.0479C4.37552 25.1115 4.3754 15.4523 10.3117 9.51596C16.2481 3.57962 25.9076 3.57947 31.8439 9.51581C37.7804 15.4523 37.7802 25.1118 31.8439 31.0482Z" fill="#FF624A"/>
</svg>
