<svg width="59" height="61" viewBox="0 0 59 61" fill="none" xmlns="http://www.w3.org/2000/svg">
<path d="M30.1879 26.5147V36.8013H47.2028C46.5166 41.2158 42.0588 49.7442 30.1879 49.7442C19.9447 49.7442 11.588 41.259 11.588 30.801C11.588 20.3429 19.9447 11.8572 30.1879 11.8572C36.0161 11.8572 39.9164 14.3437 42.145 16.4861L50.2888 8.64316C45.0603 3.75713 38.2879 0.800781 30.1879 0.800781C13.6023 0.800781 0.1875 14.2156 0.1875 30.801C0.1875 47.3864 13.6023 60.8013 30.1879 60.8013C47.5027 60.8013 58.989 48.6299 58.989 31.487C58.989 29.515 58.774 28.0148 58.5173 26.5147L30.1879 26.5147Z" fill="white"/>
</svg>
