<svg width="31" height="31" viewBox="0 0 31 31" fill="none" xmlns="http://www.w3.org/2000/svg">
<path d="M15.1447 29.9258C22.8766 29.9258 29.1447 23.6578 29.1447 15.9258C29.1447 8.19379 22.8766 1.92578 15.1447 1.92578C7.41266 1.92578 1.14453 8.19379 1.14453 15.9258C1.14453 23.6578 7.41266 29.9258 15.1447 29.9258Z" stroke="#FF624A" stroke-width="2" stroke-miterlimit="10" stroke-linecap="round"/>
<path d="M8.36328 21.6548C9.49882 19.0354 12.1076 17.2031 15.1444 17.2031C18.1805 17.2031 20.7888 19.0347 21.9247 21.6532" stroke="#FF624A" stroke-width="2" stroke-miterlimit="10" stroke-linecap="round"/>
<path d="M7.32031 12.5547C7.62095 13.0737 8.18226 13.4228 8.8252 13.4228C9.42509 13.4228 9.95404 13.1189 10.2664 12.6566" stroke="#FF624A" stroke-width="2" stroke-miterlimit="10" stroke-linecap="round"/>
<path d="M22.9695 12.5547C22.6689 13.0737 22.1075 13.4228 21.4646 13.4228C20.8647 13.4228 20.3358 13.1189 20.0234 12.6566" stroke="#FF624A" stroke-width="2" stroke-miterlimit="10" stroke-linecap="round"/>
</svg>
