<svg width="35" height="22" viewBox="0 0 35 22" fill="none" xmlns="http://www.w3.org/2000/svg">
<path d="M11.3118 9.672V13.3658H17.4215C17.1751 14.951 15.5744 18.0134 11.3118 18.0134C7.63359 18.0134 4.63281 14.9665 4.63281 11.2111C4.63281 7.45578 7.63359 4.40869 11.3118 4.40869C13.4046 4.40869 14.8051 5.30156 15.6053 6.07086L18.5297 3.25458C16.6522 1.50008 14.2204 0.438477 11.3118 0.438477C5.35612 0.438477 0.539062 5.25553 0.539062 11.2111C0.539062 17.1667 5.35612 21.9838 11.3118 21.9838C17.5293 21.9838 21.6538 17.6132 21.6538 11.4575C21.6538 10.7493 21.5765 10.2107 21.4844 9.672H11.3118Z" fill="white"/>
<path d="M34.3976 9.67236H31.3195V6.59473H28.2418V9.67236H25.1641V12.7506H28.2418V15.8282H31.3195V12.7506H34.3976V9.67236Z" fill="white"/>
</svg>
