<svg width="30" height="30" viewBox="0 0 30 30" fill="none" xmlns="http://www.w3.org/2000/svg">
<path d="M21.4219 0.276367H8.1864C3.69541 0.276367 0.0546875 3.91691 0.0546875 8.4079V21.6435C0.0546875 26.1345 3.69541 29.775 8.1864 29.775H21.4219C25.9127 29.775 29.5533 26.1345 29.5533 21.6435V8.4079C29.5533 3.91691 25.9127 0.276367 21.4219 0.276367ZM27.1699 21.6097C27.1699 24.8028 24.5813 27.3914 21.3882 27.3914H8.22009C5.02703 27.3914 2.43835 24.8028 2.43835 21.6097V8.44165C2.43835 5.24851 5.02703 2.65991 8.22009 2.65991H21.3882C24.5813 2.65991 27.1699 5.24852 27.1699 8.44165V21.6097Z" fill="white"/>
<path d="M14.8049 7.25195C10.5116 7.25195 7.03125 10.7325 7.03125 15.0258C7.03125 19.3192 10.5117 22.7994 14.8049 22.7994C19.0982 22.7994 22.5787 19.319 22.5787 15.0258C22.5787 10.7326 19.0983 7.25195 14.8049 7.25195ZM14.8049 20.0961C12.0046 20.0961 9.7345 17.826 9.7345 15.0258C9.7345 12.2254 12.0046 9.95532 14.8049 9.95532C17.6053 9.95532 19.8754 12.2254 19.8754 15.0258C19.8754 17.826 17.6052 20.0961 14.8049 20.0961Z" fill="white"/>
<path d="M24.5856 6.99298C24.5856 7.95603 23.8047 8.73676 22.8417 8.73676C21.8785 8.73676 21.0977 7.95603 21.0977 6.99298C21.0977 6.02979 21.8785 5.24902 22.8417 5.24902C23.8047 5.24902 24.5856 6.0298 24.5856 6.99298Z" fill="white"/>
</svg>
