<svg width="33" height="33" viewBox="0 0 33 33" fill="none" xmlns="http://www.w3.org/2000/svg">
<path d="M30.2755 19.1698C31.5141 11.5377 26.3309 4.34653 18.6988 3.108C11.0667 1.86948 3.87561 7.05255 2.63708 14.6847C1.39856 22.3168 6.58156 29.5079 14.2137 30.7464C21.8458 31.985 29.037 26.8019 30.2755 19.1698Z" stroke="#FF624A" stroke-width="2" stroke-miterlimit="10" stroke-linecap="round"/>
<path d="M23.9839 19.2696C22.9862 22.4781 19.9935 24.8077 16.4568 24.8077C12.92 24.8077 9.92733 22.478 8.92969 19.2695" stroke="#FF624A" stroke-width="2" stroke-miterlimit="10" stroke-linecap="round"/>
<path d="M9.52905 18.9268L8.09375 19.6137" stroke="#FF624A" stroke-width="2" stroke-miterlimit="10" stroke-linecap="round"/>
<path d="M23.3867 18.9268L24.822 19.6137" stroke="#FF624A" stroke-width="2" stroke-miterlimit="10" stroke-linecap="round"/>
<path d="M8.63281 13.5566C8.93342 14.0757 9.49476 14.4248 10.1377 14.4248C10.7376 14.4248 11.2665 14.1208 11.5789 13.6585" stroke="#FF624A" stroke-width="2" stroke-miterlimit="10" stroke-linecap="round"/>
<path d="M24.282 13.5566C23.9813 14.0757 23.42 14.4248 22.7771 14.4248C22.1772 14.4248 21.6483 14.1208 21.3359 13.6585" stroke="#FF624A" stroke-width="2" stroke-miterlimit="10" stroke-linecap="round"/>
</svg>
