<svg width="24" height="31" viewBox="0 0 24 31" fill="none" xmlns="http://www.w3.org/2000/svg">
<path d="M14.0981 22.4169C12.2627 22.2749 11.4915 21.3649 10.0522 20.491C9.26089 24.6417 8.29394 28.6212 5.43014 30.6996C4.54503 24.4256 6.72739 19.7138 7.74105 14.7118C6.01323 11.8033 7.94921 5.94905 11.5933 7.39156C16.0782 9.16532 7.71029 18.2062 13.3277 19.3351C19.1925 20.5136 21.5866 9.15865 17.9498 5.46548C12.695 0.132957 2.65346 5.34403 3.88815 12.9777C4.1891 14.844 6.11742 15.4107 4.65841 17.986C1.29525 17.2411 0.291834 14.5885 0.420984 11.0521C0.629064 5.26318 5.62229 1.21015 10.6305 0.649193C16.9643 -0.0595073 22.9089 2.97496 23.7297 8.93264C24.6533 15.6575 20.8704 22.9398 14.0981 22.4169Z" fill="white"/>
</svg>
