<svg width="37" height="28" viewBox="0 0 37 28" fill="none" xmlns="http://www.w3.org/2000/svg">
<path d="M1.49316 27.3516L6.77344 8.15137L8.5332 15.4312C6.29394 15.4312 4.43945 14.7515 2.97363 13.3916C1.50586 12.0313 0.773438 10.2051 0.773438 7.91113C0.773438 5.56494 1.51953 3.68506 3.01367 2.27148C4.50586 0.858884 6.3457 0.151367 8.5332 0.151367C10.7734 0.151367 12.6133 0.858884 14.0537 2.27148C15.4932 3.68505 16.2139 5.56494 16.2139 7.91113C16.2139 8.55127 16.1738 9.20508 16.0938 9.87158C16.0137 10.5391 15.8135 11.3252 15.4932 12.2314C15.1738 13.1387 14.6934 14.3389 14.0537 15.8315L9.49316 27.3516H1.49316Z" fill="#FF624A"/>
<path d="M21.6533 27.3516L26.9336 8.15137L28.6934 15.4312C26.4541 15.4312 24.5996 14.7515 23.1338 13.3916C21.666 12.0313 20.9336 10.2051 20.9336 7.91113C20.9336 5.56494 21.6797 3.68506 23.1738 2.27148C24.666 0.858884 26.5059 0.151367 28.6934 0.151367C30.9336 0.151367 32.7734 0.858884 34.2139 2.27148C35.6533 3.68505 36.374 5.56494 36.374 7.91113C36.374 8.55127 36.334 9.20508 36.2539 9.87158C36.1738 10.5391 35.9736 11.3252 35.6533 12.2314C35.334 13.1387 34.8535 14.3389 34.2139 15.8315L29.6533 27.3516H21.6533Z" fill="#FF624A"/>
</svg>
