<svg width="23" height="24" viewBox="0 0 23 24" fill="none" xmlns="http://www.w3.org/2000/svg">
<path d="M15.8004 3.26903C12.1969 -0.334509 6.33351 -0.334448 2.72997 3.26909C-0.873572 6.87263 -0.873511 12.7359 2.73003 16.3394C5.79851 19.4079 10.5046 19.8616 14.0596 17.7043L19.0767 22.7214C19.9187 23.5635 21.2835 23.5689 22.1188 22.7335C22.9542 21.8982 22.9487 20.5336 22.1066 19.6915L17.107 14.6919C19.3296 11.1263 18.8959 6.36448 15.8004 3.26903ZM14.189 14.7281C11.4741 17.4431 7.0565 17.443 4.34148 14.728C1.62653 12.0131 1.62642 7.59549 4.34136 4.88054C7.05631 2.16559 11.4741 2.16548 14.189 4.88042C16.904 7.59543 16.904 12.0132 14.189 14.7281Z" fill="#FF624A"/>
</svg>
