<svg width="30" height="28" viewBox="0 0 30 28" fill="none" xmlns="http://www.w3.org/2000/svg">
<path d="M14.5341 27.4516C13.4487 27.4516 12.5529 27.1659 11.6358 26.592C10.7583 26.0553 9.91209 25.3909 8.92709 25.0595C7.89443 24.7126 6.76819 24.8868 5.72042 25.0656C5.39752 25.1208 4.94775 25.2863 4.74289 24.9146C4.50983 24.4919 4.51616 23.9201 4.34396 23.4658C4.22717 23.1581 3.67126 23.1621 3.38668 23.1041C3.12536 23.051 2.8723 22.9865 2.61288 22.9183C2.03313 22.7659 0.0361255 22.2553 0.639736 21.2751C0.840126 20.9747 1.13478 20.9055 1.45138 20.7923C1.95515 20.6117 2.4514 20.4689 2.92941 20.2179C3.82706 19.7467 4.62174 19.071 5.28134 18.3046C5.90887 17.5751 6.57898 16.649 6.79574 15.6944C7.0401 14.6195 6.01938 14.3508 5.21847 14.0536C4.6211 13.832 3.50801 13.4195 3.37985 12.6788C3.25044 11.9267 4.32075 11.3936 4.92318 11.525C5.33396 11.607 5.71346 11.7773 6.13436 11.8315C6.35795 11.8606 6.58532 11.8733 6.81088 11.857C6.99425 11.8441 6.97169 11.8647 7.02572 11.7272C7.10991 10.6364 6.93714 9.5331 6.91769 8.44195C6.90014 7.47456 6.97233 6.47645 7.3348 5.5692C7.67834 4.70848 8.22364 3.90614 8.85617 3.2326C10.2005 1.80179 12.0114 1.03666 13.9537 0.885427C15.8627 0.737287 17.8565 1.02977 19.4683 2.11809C20.9791 3.13767 22.2411 4.77946 22.5232 6.61303C22.672 7.63957 22.625 8.67622 22.6004 9.7094C22.5955 10.2279 22.559 10.7461 22.5558 11.2646C22.5552 11.4402 22.5601 11.6151 22.5665 11.7906C22.5696 11.8693 22.9195 11.8647 22.9747 11.8647C23.7317 11.8647 24.4729 11.3204 25.2198 11.5155C25.8317 11.6757 26.5271 12.3407 26.1086 12.9979C25.7663 13.5342 25.0578 13.8201 24.4898 14.0324C23.9422 14.2369 23.231 14.4153 22.895 14.9448C22.6588 15.2577 22.8209 15.7214 22.9521 16.0394C23.1362 16.4848 23.3661 16.9103 23.628 17.3144C24.1186 18.0711 24.7155 18.7633 25.4096 19.3403C26.0378 19.8628 26.7482 20.2943 27.5169 20.5745C27.9598 20.7357 28.3764 20.7841 28.7728 21.0232C29.041 21.1853 29.0981 21.4519 29.0516 21.7324C29.0089 21.9838 28.8029 22.1568 28.6007 22.2956C28.1125 22.6317 27.4265 22.8101 26.8687 22.9692C26.5119 23.0709 26.1576 23.1292 25.7895 23.165C25.3636 23.2065 25.2494 23.5913 25.1419 23.9507C25.0207 24.3547 24.9636 25.0288 24.4215 25.0513C23.9924 25.0513 23.549 24.9535 23.118 24.9308C22.6695 24.9074 22.2152 24.8926 21.7668 24.9177C21.4904 24.9336 21.2116 24.9398 20.9377 24.9813C20.4916 25.0491 20.077 25.3159 19.6932 25.5406C18.8797 26.0162 18.1154 26.592 17.2717 27.0146C16.4281 27.4372 15.4595 27.4516 14.5341 27.4516Z" fill="white"/>
</svg>
