<svg width="66" height="66" viewBox="0 0 66 66" fill="none" xmlns="http://www.w3.org/2000/svg">
<path d="M43.3632 26.6462C45.8657 26.6462 48.0378 26.639 50.2099 26.6481C52.7287 26.6587 55.2513 26.6035 57.7653 26.7214C61.6654 26.9042 64.3663 29.1963 64.9245 32.6352C65.2902 34.8876 64.5241 36.6962 62.2858 38.714C63.7114 40.1056 64.7162 41.7158 64.4773 43.828C64.2458 45.8742 63.4094 47.5528 61.5607 48.5861C63.2756 52.8806 62.8708 54.7542 59.7211 57.2011C59.9271 57.768 60.1904 58.3245 60.3317 58.9106C61.0079 61.7147 59.4011 64.2256 56.5854 64.757C55.8434 64.897 55.0788 64.9815 54.3244 64.9826C44.0105 64.9973 33.6964 65.014 23.3828 64.9592C22.389 64.9539 21.3362 64.6069 20.4205 64.182C19.192 63.6121 18.6488 62.6539 18.6644 61.1198C18.7585 51.8525 18.758 42.5831 18.6734 33.3156C18.6561 31.4116 19.3139 30.0582 20.6757 28.8478C24.1191 25.7874 27.5109 22.6692 30.9377 19.59C35.6501 15.3556 38.8336 10.1718 40.6821 4.12761C41.5952 1.14178 42.5698 0.279346 44.8408 0.200116C47.0321 0.123666 49.1927 1.59146 50.1709 3.83293C51.4798 6.83226 51.4326 9.94824 50.2265 12.8588C48.6357 16.698 46.6519 20.3749 44.8159 24.1112C44.442 24.8721 43.9742 25.5869 43.3632 26.6462Z" fill="#FFE38A"/>
<path d="M0.216413 47.5864C0.216363 42.6912 0.213478 37.7958 0.217878 32.9006C0.219718 30.8492 0.891765 30.165 2.93528 30.1592C6.49973 30.149 10.0643 30.1484 13.6288 30.1597C15.6152 30.1659 16.2971 30.8394 16.2981 32.7939C16.3032 42.727 16.3037 52.66 16.2976 62.593C16.2964 64.4502 15.7017 65.036 13.8069 65.0434C10.0999 65.058 6.39274 65.0627 2.68577 65.0478C0.839913 65.0404 0.22212 64.4062 0.21922 62.5571C0.2114 57.5669 0.216453 52.5767 0.216413 47.5864Z" fill="#FFE38A"/>
</svg>
