<svg width="29" height="24" viewBox="0 0 29 24" fill="none" xmlns="http://www.w3.org/2000/svg">
<path d="M28.9117 3.63391C27.8742 4.09418 26.7585 4.40535 25.5884 4.54449C26.7829 3.82836 27.6999 2.69554 28.1329 1.34399C27.0148 2.00715 25.7763 2.48846 24.4587 2.74774C23.4033 1.62353 21.8996 0.920898 20.2345 0.920898C17.0398 0.920898 14.4487 3.51195 14.4487 6.70673C14.4487 7.16036 14.5 7.60181 14.5992 8.02533C9.79081 7.78412 5.52752 5.48073 2.67371 1.97961C2.17565 2.83396 1.89001 3.8284 1.89001 4.88879C1.89001 6.89541 2.91218 8.66694 4.46399 9.70465C3.51599 9.67442 2.6233 9.41446 1.84375 8.98022C1.84302 9.0046 1.84302 9.02953 1.84302 9.05359C1.84302 11.857 3.83812 14.1948 6.4845 14.7262C5.99952 14.8588 5.48775 14.9297 4.96045 14.9297C4.58694 14.9297 4.22478 14.8934 3.87158 14.8262C4.60809 17.1244 6.74408 18.797 9.27649 18.8438C7.2959 20.3962 4.80171 21.3208 2.09033 21.3208C1.62402 21.3208 1.16253 21.2936 0.710938 21.2399C3.27017 22.882 6.31202 23.8398 9.57922 23.8398C20.2216 23.8398 26.0415 15.0241 26.0415 7.37714C26.0415 7.12653 26.0358 6.87681 26.0245 6.62897C27.1556 5.8132 28.1363 4.79426 28.9117 3.63391Z" fill="white"/>
</svg>
