<svg width="32" height="33" viewBox="0 0 32 33" fill="none" xmlns="http://www.w3.org/2000/svg">
<path fill-rule="evenodd" clip-rule="evenodd" d="M23.574 19.5082C23.1846 19.2949 21.2706 18.2621 20.9122 18.1164C20.5538 17.9702 20.2912 17.8946 20.0111 18.2819C19.7328 18.6679 18.9379 19.533 18.6982 19.7889C18.4563 20.0459 18.2238 20.0697 17.8334 19.8559C17.4455 19.6426 16.1823 19.1756 14.7179 17.7676C13.578 16.6722 12.8306 15.3436 12.6143 14.9381C12.3964 14.5323 12.6127 14.3255 12.8185 14.1355C13.0038 13.9635 13.2331 13.686 13.4402 13.4623C13.646 13.2387 13.7187 13.0754 13.8607 12.8159C14.0031 12.5566 13.9455 12.3226 13.8535 12.1202C13.7618 11.9182 13.0417 9.93633 12.7415 9.1297C12.4403 8.32373 12.1051 8.44322 11.8738 8.43402C11.6422 8.4262 11.3792 8.38311 11.1151 8.3728C10.8496 8.36301 10.4163 8.44632 10.0387 8.82935C9.65988 9.21246 8.59858 10.1336 8.52588 12.0862C8.4524 14.0376 9.80333 15.9772 9.99182 16.2484C10.18 16.521 12.5705 20.7519 16.5424 22.4914C20.5165 24.2314 20.5378 23.7011 21.266 23.6622C21.9962 23.6234 23.6491 22.7893 24.015 21.8763C24.3804 20.9627 24.4096 20.1687 24.3169 19.9998C24.2238 19.8305 23.9629 19.7212 23.574 19.5082ZM16.2866 28.9144C13.6604 28.9144 11.2128 28.1261 9.17029 26.7747L4.19836 28.3664L5.81421 23.562C4.26556 21.4294 3.3512 18.809 3.3512 15.9772C3.3512 8.84257 9.15446 3.03943 16.2866 3.03943C23.4212 3.03943 29.2244 8.84256 29.2244 15.9772C29.2244 23.1102 23.4212 28.9144 16.2866 28.9144ZM16.2866 0.436523C7.70504 0.436523 0.746948 7.39407 0.746948 15.9772C0.746948 18.9136 1.56225 21.6589 2.97742 24.002L0.171875 32.3391L8.77551 29.5849C11.0025 30.8159 13.5626 31.518 16.2866 31.518C24.8712 31.518 31.8287 24.5597 31.8287 15.9772C31.8287 7.39407 24.8712 0.436523 16.2866 0.436523Z" fill="white"/>
</svg>
