<svg width="38" height="37" viewBox="0 0 38 37" fill="none" xmlns="http://www.w3.org/2000/svg">
<path d="M17.0985 20.9062L16.1485 9.78125H21.8235L20.8735 20.9062H17.0985ZM18.9985 27.5063C18.1649 27.5063 17.4817 27.248 16.9485 26.7314C16.4149 26.2148 16.1484 25.5981 16.1484 24.8813C16.1484 24.1479 16.4149 23.5356 16.9485 23.0439C17.4817 22.5522 18.1649 22.3062 18.9985 22.3062C19.8317 22.3062 20.511 22.5522 21.036 23.0439C21.561 23.5356 21.8235 24.1479 21.8235 24.8813C21.8235 25.5981 21.561 26.2148 21.036 26.7314C20.511 27.248 19.8317 27.5063 18.9985 27.5063Z" fill="#FF624A"/>
<path d="M18.9963 35.438C28.2882 35.438 35.8208 27.9052 35.8208 18.6133C35.8208 9.32139 28.2882 1.78906 18.9963 1.78906C9.70444 1.78906 2.17188 9.32139 2.17188 18.6133C2.17188 27.9052 9.70444 35.438 18.9963 35.438Z" stroke="#FF624A" stroke-width="3" stroke-miterlimit="10"/>
</svg>
