<svg width="309" height="25" viewBox="0 0 309 25" fill="none" xmlns="http://www.w3.org/2000/svg">
<path d="M4.78552 23.2598C2.98645 22.6284 1.57483 21.8481 0.550781 20.9189L3.51691 15.7373C4.51752 16.5474 5.71466 17.2505 7.1084 17.8457C8.50214 18.4414 9.66358 18.7388 10.5927 18.7388C11.2594 18.7388 11.7838 18.6616 12.1651 18.5068C12.5459 18.352 12.7369 18.0723 12.7369 17.667C12.7369 17.3335 12.5046 17.0298 12.04 16.7554C11.5754 16.4819 10.7949 16.1186 9.69928 15.6655C8.15033 15.0225 6.85211 14.397 5.80402 13.7896C4.75537 13.1821 3.8385 12.3599 3.05231 11.3237C2.26612 10.2871 1.87305 9.01855 1.87305 7.51758C1.87305 6.04102 2.26 4.77196 3.03448 3.71191C3.80834 2.65185 4.83917 1.84814 6.12567 1.2998C7.41217 0.751955 8.79358 0.477539 10.2711 0.477539C12.0339 0.477539 13.6481 0.757813 15.1133 1.31738C16.5786 1.87744 17.7517 2.62158 18.6334 3.55078L15.703 8.5542C14.9642 7.91065 14.1306 7.38721 13.2015 6.98145C12.2723 6.57666 11.4023 6.37402 10.5927 6.37402C10.0924 6.37402 9.70489 6.4458 9.43127 6.58838C9.1571 6.73145 9.02032 6.99414 9.02032 7.37451C9.02032 7.85156 9.29388 8.25635 9.84222 8.58984C10.39 8.92382 11.2477 9.32862 12.4153 9.80469C13.8682 10.4004 15.0832 10.9785 16.0604 11.5381C17.037 12.0981 17.8829 12.8662 18.5977 13.8433C19.3124 14.8203 19.6697 16.0229 19.6697 17.4526C19.6697 18.8584 19.2588 20.0732 18.4368 21.0977C17.6149 22.1221 16.5305 22.8965 15.1848 23.4204C13.8386 23.9443 12.3912 24.2065 10.8428 24.2065C8.60321 24.2065 6.5841 23.8906 4.78552 23.2598Z" fill="white"/>
<path d="M22.8867 0.871094H29.8553V9.19775H36.7524V0.871094H43.721V23.814H36.7524V15.2729H29.8553V23.814H22.8867V0.871094Z" fill="white"/>
<path d="M52.4052 22.6885C50.6658 21.6997 49.3196 20.294 48.3669 18.4712C47.4138 16.6489 46.9375 14.5225 46.9375 12.0923C46.9375 9.85352 47.4317 7.85791 48.4206 6.10645C49.4089 4.35547 50.7792 2.98584 52.5303 1.99707C54.2813 1.00879 56.2647 0.513672 58.4803 0.513672C60.7195 0.513672 62.7207 1.00244 64.484 1.979C66.2469 2.95605 67.6227 4.32569 68.6116 6.08887C69.5999 7.85205 70.0946 9.85352 70.0946 12.0923C70.0946 14.499 69.6178 16.6133 68.6652 18.4355C67.712 20.2583 66.3602 21.6699 64.6091 22.6704C62.858 23.6709 60.8149 24.1714 58.4803 24.1714C56.1692 24.1714 54.144 23.6772 52.4052 22.6885ZM61.8038 16.4165C62.566 15.416 62.9474 13.9629 62.9474 12.0566C62.9474 10.4609 62.542 9.17969 61.7323 8.21484C60.9221 7.25 59.8383 6.76758 58.4803 6.76758C57.0743 6.76758 55.9905 7.22655 55.2283 8.14355C54.4656 9.06104 54.0848 10.3652 54.0848 12.0566C54.0848 13.8438 54.4835 15.2676 55.2819 16.3271C56.0799 17.3877 57.1458 17.9175 58.4803 17.9175C59.9332 17.9175 61.0411 17.417 61.8038 16.4165Z" fill="white"/>
<path d="M74.6325 14.8442C73.7748 12.0332 73.0718 9.39453 72.524 6.92871C71.9757 4.46289 71.6424 2.44385 71.5234 0.871094H78.3848C78.4797 2.20556 78.8014 3.99268 79.3496 6.23145C79.8974 8.4712 80.5647 10.8301 81.3509 13.3076L81.601 14.0938H81.744C82.1728 12.8784 82.5598 11.5508 82.9054 10.1089C83.2505 8.66797 83.4951 7.44678 83.638 6.44629H90.7853C90.9043 7.42334 91.1304 8.62597 91.4643 10.0557C91.7976 11.4849 92.179 12.831 92.6079 14.0938H92.8223L93.0724 13.3076C93.8347 10.9253 94.4958 8.60254 95.0558 6.33887C95.6153 4.07569 95.9788 2.25341 96.1458 0.871094H102.9C102.757 2.68213 102.411 4.84423 101.864 7.35742C101.315 9.87109 100.625 12.3667 99.7909 14.8442C98.5759 18.4893 97.468 21.4795 96.4674 23.814H90.1778C89.749 23.0044 89.2665 21.9502 88.7305 20.6514C88.1945 19.353 87.7238 18.1558 87.3189 17.0596H87.1045C86.6991 18.1558 86.2289 19.353 85.6929 20.6514C85.1568 21.9502 84.6744 23.0044 84.2456 23.814H77.9917C76.5857 20.6216 75.4662 17.6313 74.6325 14.8442Z" fill="white"/>
<path d="M110.028 22.6885C108.206 21.6997 106.799 20.294 105.811 18.4712C104.822 16.6489 104.328 14.5347 104.328 12.1284C104.328 9.86524 104.846 7.85791 105.883 6.10645C106.919 4.35547 108.354 2.98584 110.189 1.99707C112.023 1.00879 114.096 0.513672 116.407 0.513672C118.337 0.513672 120.093 0.812017 121.678 1.40723C123.262 2.00293 124.531 2.8252 125.484 3.87305L121.589 8.66162C121.017 8.11377 120.29 7.66113 119.409 7.30371C118.527 6.94629 117.634 6.76758 116.729 6.76758C115.037 6.76758 113.739 7.2207 112.833 8.12549C111.928 9.03125 111.475 10.3652 111.475 12.1284C111.475 14.0347 111.934 15.5293 112.851 16.6133C113.768 17.6973 115.085 18.2393 116.8 18.2393C117.276 18.2393 117.777 18.1797 118.301 18.0605V15.8091H114.477V10.1982H125.27V21.0981C124.531 21.9795 123.31 22.7124 121.607 23.2959C119.903 23.8794 118.17 24.1714 116.407 24.1714C113.977 24.1714 111.851 23.6772 110.028 22.6885Z" fill="#FF624A"/>
<path d="M143.135 21.8843L142.599 19.8828H135.095L133.987 23.814H127.09C127.519 21.9556 128.12 19.8115 128.894 17.3813C129.668 14.9512 130.544 12.5337 131.521 10.127C132.784 6.74414 134.177 3.65869 135.702 0.871094H141.956C143.29 3.32519 144.684 6.41015 146.137 10.127C147.114 12.5337 147.989 14.9512 148.764 17.3813C149.538 19.8115 150.14 21.9556 150.569 23.814H143.636L143.135 21.8843ZM141.063 14.7012C140.181 11.8189 139.431 9.61474 138.811 8.08984C138.12 9.80517 137.382 12.0093 136.596 14.7012H141.063Z" fill="#FF624A"/>
<path d="M160.757 0.871094C161.423 1.65722 162.281 2.97412 163.33 4.82031C164.378 6.6665 165.247 8.31689 165.938 9.76953H166.081C166.772 8.31689 167.641 6.6665 168.69 4.82031C169.738 2.97412 170.596 1.65722 171.263 0.871094H179.125V23.814H172.156V11.771H172.085C171.608 12.7241 171.108 13.8203 170.584 15.0586C170.06 16.2974 169.643 17.3813 169.333 18.3105H162.686C162.376 17.3813 161.959 16.2974 161.436 15.0586C160.911 13.8203 160.411 12.7241 159.935 11.771H159.863V23.814H152.895V0.871094H160.757Z" fill="#FF624A"/>
<path d="M183.41 0.871094H198.348V6.94629H190.379V9.37646H197.169V15.1655H190.379V17.7388H198.991V23.814H183.41V0.871094Z" fill="#FF624A"/>
<path d="M211.429 0.871094C214.311 0.871094 216.522 1.52051 218.058 2.81885C219.595 4.11768 220.363 6.01708 220.363 8.51904C220.363 9.75781 220.053 10.8774 219.434 11.8779C218.814 12.8784 217.897 13.7007 216.682 14.3438C218.112 15.7734 219.285 17.2563 220.202 18.793C221.119 20.3296 221.793 22.0039 222.221 23.814H215.11C214.681 22.4326 214.097 21.1396 213.359 19.9365C212.62 18.7339 211.727 17.5244 210.679 16.3096H209.464V23.814H202.566V0.871094H211.429ZM212.93 10.1982C213.287 9.76953 213.466 9.20996 213.466 8.51904C213.466 7.82812 213.293 7.29834 212.948 6.92871C212.602 6.55957 212.12 6.37451 211.501 6.37451H209.464V10.8418H211.501C212.096 10.8418 212.573 10.6274 212.93 10.1982Z" fill="#FF624A"/>
<path d="M226.615 23.3306C226.067 22.7944 225.793 22.1216 225.793 21.3115C225.793 20.502 226.067 19.8286 226.615 19.2925C227.163 18.7564 227.853 18.4883 228.688 18.4883C229.521 18.4883 230.212 18.7564 230.76 19.2925C231.308 19.8286 231.582 20.502 231.582 21.3115C231.582 22.1216 231.308 22.7944 230.76 23.3306C230.212 23.8667 229.521 24.1348 228.688 24.1348C227.853 24.1348 227.163 23.8667 226.615 23.3306Z" fill="white"/>
<path d="M239.571 22.6885C237.82 21.6997 236.468 20.294 235.515 18.4712C234.562 16.6489 234.086 14.5347 234.086 12.1284C234.086 9.9126 234.592 7.92334 235.605 6.16016C236.617 4.39746 238.011 3.01563 239.786 2.01465C241.56 1.01416 243.556 0.513672 245.772 0.513672C247.368 0.513672 248.922 0.812017 250.435 1.40723C251.948 2.00293 253.193 2.81347 254.17 3.8374L250.203 8.66162C249.75 8.11377 249.137 7.66113 248.363 7.30371C247.588 6.94629 246.76 6.76758 245.879 6.76758C244.401 6.76758 243.258 7.22655 242.448 8.14355C241.638 9.06104 241.233 10.3892 241.233 12.1284C241.233 14.0581 241.632 15.5054 242.43 16.4702C243.228 17.4351 244.414 17.9175 245.986 17.9175C246.963 17.9175 247.82 17.7153 248.559 17.3101C249.297 16.9053 250.012 16.3218 250.703 15.5591L254.813 19.9546C252.549 22.7661 249.512 24.1714 245.7 24.1714C243.365 24.1714 241.323 23.6772 239.571 22.6885Z" fill="white"/>
<path d="M261.35 22.6885C259.611 21.6997 258.265 20.294 257.312 18.4712C256.359 16.6489 255.883 14.5225 255.883 12.0923C255.883 9.85352 256.377 7.85791 257.366 6.10645C258.354 4.35547 259.724 2.98584 261.476 1.99707C263.227 1.00879 265.21 0.513672 267.426 0.513672C269.665 0.513672 271.666 1.00244 273.429 1.979C275.192 2.95605 276.568 4.32569 277.557 6.08887C278.545 7.85205 279.04 9.85352 279.04 12.0923C279.04 14.499 278.563 16.6133 277.611 18.4355C276.657 20.2583 275.306 21.6699 273.554 22.6704C271.803 23.6709 269.76 24.1714 267.426 24.1714C265.114 24.1714 263.089 23.6772 261.35 22.6885ZM270.749 16.4165C271.511 15.416 271.893 13.9629 271.893 12.0566C271.893 10.4609 271.487 9.17969 270.678 8.21484C269.867 7.25 268.784 6.76758 267.426 6.76758C266.02 6.76758 264.936 7.22655 264.174 8.14355C263.411 9.06104 263.03 10.3652 263.03 12.0566C263.03 13.8438 263.429 15.2676 264.227 16.3271C265.025 17.3877 266.091 17.9175 267.426 17.9175C268.879 17.9175 269.986 17.417 270.749 16.4165Z" fill="white"/>
<path d="M290.12 0.871094C290.787 1.65722 291.644 2.97412 292.693 4.82031C293.741 6.6665 294.61 8.31689 295.302 9.76953H295.445C296.135 8.31689 297.005 6.6665 298.053 4.82031C299.101 2.97412 299.959 1.65722 300.626 0.871094H308.488V23.814H301.52V11.771H301.448C300.971 12.7241 300.471 13.8203 299.947 15.0586C299.423 16.2974 299.006 17.3813 298.697 18.3105H292.05C291.74 17.3813 291.323 16.2974 290.799 15.0586C290.274 13.8203 289.774 12.7241 289.298 11.771H289.226V23.814H282.258V0.871094H290.12Z" fill="white"/>
</svg>
