<svg width="269" height="55" viewBox="0 0 269 55" fill="none" xmlns="http://www.w3.org/2000/svg">
<path d="M27.9574 38.3718C26.1583 37.7408 24.7467 36.9602 23.7227 36.031L26.6888 30.8493C27.6894 31.6595 28.8865 32.3625 30.2803 32.9577C31.674 33.5535 32.8355 33.8511 33.7646 33.8511C34.4313 33.8511 34.9556 33.7741 35.337 33.6188C35.7178 33.4642 35.9088 33.1844 35.9088 32.779C35.9088 32.4457 35.6765 32.1419 35.2119 31.8678C34.7473 31.5942 33.9667 31.2307 32.8712 30.7778C31.3222 30.1346 30.024 29.5092 28.9759 28.9016C27.9272 28.2941 27.0104 27.4722 26.2242 26.4358C25.438 25.3995 25.0449 24.1308 25.0449 22.6299C25.0449 21.153 25.4319 19.8844 26.2064 18.824C26.9802 17.7642 28.011 16.9601 29.2975 16.4118C30.584 15.864 31.9655 15.5898 33.4429 15.5898C35.2058 15.5898 36.82 15.8702 38.2852 16.4297C39.7504 16.9897 40.9236 17.734 41.8052 18.6632L38.8749 23.6663C38.1361 23.023 37.3025 22.4992 36.3734 22.0939C35.4442 21.689 34.5742 21.4864 33.7646 21.4864C33.2643 21.4864 32.8768 21.5578 32.6031 21.7008C32.329 21.8437 32.1922 22.1061 32.1922 22.487C32.1922 22.9638 32.4658 23.3686 33.0141 23.702C33.5619 24.0359 34.4196 24.4407 35.5872 24.9171C37.04 25.5128 38.2551 26.0908 39.2322 26.6502C40.2089 27.2103 41.0548 27.9786 41.7695 28.9553C42.4843 29.9324 42.8416 31.1352 42.8416 32.5646C42.8416 33.9706 42.4307 35.1857 41.6087 36.2097C40.7867 37.2343 39.7024 38.0088 38.3567 38.5326C37.0104 39.0564 35.5631 39.3188 34.0147 39.3188C31.7751 39.3188 29.756 39.0027 27.9574 38.3718Z" fill="white"/>
<path d="M46.0586 15.9824H53.0272V24.309H59.9243V15.9824H66.8929V38.9251H59.9243V30.3842H53.0272V38.9251H46.0586V15.9824Z" fill="white"/>
<path d="M75.577 37.7994C73.8377 36.8111 72.4915 35.4051 71.5388 33.5825C70.5857 31.76 70.1094 29.6337 70.1094 27.2036C70.1094 24.9645 70.6036 22.9688 71.5925 21.2177C72.5807 19.4667 73.951 18.0969 75.7021 17.1081C77.4532 16.1197 79.4366 15.625 81.6522 15.625C83.8913 15.625 85.8926 16.1136 87.6559 17.0902C89.4187 18.0673 90.7946 19.4371 91.7835 21.1999C92.7718 22.9633 93.2665 24.9645 93.2665 27.2036C93.2665 29.6102 92.7896 31.7242 91.8371 33.5468C90.8839 35.3694 89.5321 36.7809 87.781 37.7815C86.0299 38.7822 83.9868 39.2825 81.6522 39.2825C79.341 39.2825 77.3159 38.7883 75.577 37.7994ZM84.9757 31.5277C85.7379 30.5271 86.1192 29.0742 86.1192 27.1679C86.1192 25.572 85.7138 24.2911 84.9042 23.3262C84.094 22.3613 83.0102 21.8789 81.6522 21.8789C80.2462 21.8789 79.1624 22.3379 78.4002 23.2547C77.6374 24.1722 77.2567 25.4765 77.2567 27.1679C77.2567 28.9547 77.6553 30.3785 78.4538 31.4384C79.2518 32.4987 80.3177 33.0286 81.6522 33.0286C83.1051 33.0286 84.2129 32.5283 84.9757 31.5277Z" fill="white"/>
<path d="M97.8044 29.9553C96.9467 27.1444 96.2437 24.5055 95.6959 22.0397C95.1476 19.5739 94.8143 17.5548 94.6953 15.9824H101.557C101.652 17.3169 101.973 19.1038 102.522 21.3429C103.069 23.5825 103.737 25.9411 104.523 28.4186L104.773 29.2049H104.916C105.345 27.9898 105.732 26.662 106.077 25.2202C106.422 23.7791 106.667 22.5579 106.81 21.5573H113.957C114.076 22.5345 114.302 23.7372 114.636 25.1667C114.97 26.5961 115.351 27.9424 115.78 29.2049H115.994L116.244 28.4187C117.007 26.0366 117.668 23.7138 118.228 21.4501C118.787 19.187 119.151 17.3644 119.318 15.9824H126.072C125.929 17.7932 125.583 19.9553 125.035 22.4685C124.487 24.9824 123.796 27.4778 122.963 29.9553C121.748 33.6004 120.64 36.5906 119.639 38.9252H113.35C112.921 38.1155 112.438 37.0613 111.902 35.7625C111.366 34.4642 110.896 33.2671 110.491 32.171H110.276C109.871 33.2671 109.401 34.4642 108.865 35.7625C108.329 37.0613 107.846 38.1155 107.417 38.9252H101.164C99.7576 35.7329 98.6381 32.7427 97.8044 29.9553Z" fill="white"/>
<path d="M133.2 37.7994C131.377 36.8111 129.971 35.4051 128.983 33.5825C127.994 31.76 127.5 29.6459 127.5 27.2393C127.5 24.9762 128.018 22.9688 129.055 21.2177C130.091 19.4667 131.526 18.0969 133.361 17.1081C135.195 16.1197 137.268 15.625 139.579 15.625C141.509 15.625 143.265 15.9232 144.85 16.5184C146.434 17.1142 147.703 17.9361 148.656 18.9842L144.761 23.7729C144.189 23.2251 143.462 22.7723 142.581 22.4149C141.699 22.0576 140.806 21.8789 139.901 21.8789C138.209 21.8789 136.91 22.3317 136.005 23.2369C135.1 24.1426 134.647 25.4765 134.647 27.2393C134.647 29.1456 135.106 30.6404 136.023 31.7242C136.94 32.8086 138.257 33.3503 139.972 33.3503C140.448 33.3503 140.949 33.291 141.473 33.1716V30.9202H137.649V25.3096H148.442V36.2091C147.703 37.0908 146.482 37.8234 144.779 38.4069C143.075 38.9904 141.342 39.2825 139.579 39.2825C137.149 39.2825 135.023 38.7883 133.2 37.7994Z" fill="#FF624A"/>
<path d="M166.307 36.9954L165.771 34.9942H158.267L157.159 38.9252H150.262C150.691 37.0669 151.292 34.9227 152.066 32.4926C152.84 30.0625 153.716 27.6448 154.693 25.2381C155.956 21.8554 157.349 18.7698 158.874 15.9824H165.128C166.462 18.4365 167.856 21.5215 169.309 25.2381C170.286 27.6448 171.161 30.0625 171.936 32.4926C172.71 34.9227 173.312 37.0669 173.74 38.9252H166.808L166.307 36.9954ZM164.235 29.8124C163.353 26.93 162.602 24.7261 161.983 23.2011C161.292 24.9165 160.554 27.1204 159.768 29.8124H164.235Z" fill="#FF624A"/>
<path d="M183.928 15.9824C184.595 16.7686 185.453 18.0853 186.501 19.9313C187.549 21.7778 188.419 23.4279 189.11 24.8808H189.253C189.944 23.4279 190.813 21.7778 191.862 19.9313C192.91 18.0853 193.768 16.7686 194.435 15.9824H202.297V38.9251H195.328V26.882H195.257C194.78 27.8352 194.28 28.9313 193.756 30.1697C193.232 31.4088 192.815 32.4926 192.505 33.4218H185.858C185.548 32.4926 185.131 31.4088 184.607 30.1697C184.083 28.9313 183.583 27.8352 183.107 26.882H183.035V38.9251H176.066V15.9824H183.928Z" fill="#FF624A"/>
<path d="M206.582 15.9824H221.52V22.0576H213.551V24.4876H220.341V30.2769H213.551V32.8499H222.163V38.9251H206.582V15.9824Z" fill="#FF624A"/>
<path d="M234.601 15.9824C237.483 15.9824 239.693 16.6318 241.23 17.93C242.767 19.2288 243.535 21.1285 243.535 23.63C243.535 24.869 243.225 25.9886 242.606 26.9892C241.986 27.9898 241.069 28.8117 239.854 29.455C241.284 30.8845 242.457 32.3675 243.374 33.9042C244.291 35.4409 244.965 37.1149 245.393 38.9251H238.282C237.853 37.5437 237.269 36.2511 236.531 35.0478C235.792 33.845 234.899 32.6355 233.851 31.4205H232.635V38.9251H225.738V15.9824H234.601ZM236.102 25.3096C236.459 24.8808 236.638 24.3213 236.638 23.63C236.638 22.9393 236.465 22.4094 236.12 22.0397C235.774 21.6706 235.292 21.4858 234.672 21.4858H232.635V25.9529H234.672C235.268 25.9529 235.745 25.7384 236.102 25.3096Z" fill="#FF624A"/>
<path d="M241.488 0.740234H27.623C12.9195 0.740234 1 12.6597 1 27.3632V27.5482C1 42.2516 12.9195 54.1711 27.623 54.1711H241.488C256.192 54.1711 268.111 42.2516 268.111 27.5482V27.3632C268.111 12.6597 256.192 0.740234 241.488 0.740234Z" stroke="white" stroke-miterlimit="10"/>
</svg>
