<svg width="81" height="81" viewBox="0 0 81 81" fill="none" xmlns="http://www.w3.org/2000/svg">
<path d="M57.115 0.684814H24.3372C11.4506 0.684814 1.00391 11.1315 1.00391 24.0181V56.7959C1.00391 69.6826 11.4506 80.1293 24.3372 80.1293H57.115C70.0017 80.1293 80.4484 69.6826 80.4484 56.7959V24.0181C80.4484 11.1315 70.0017 0.684814 57.115 0.684814Z" stroke="white" stroke-miterlimit="10"/>
<path d="M14.75 56.6404C12.0752 55.7024 9.97559 54.5417 8.45312 53.1604L12.8633 45.4558C14.3516 46.6604 16.1309 47.7053 18.2041 48.5906C20.2764 49.4763 22.0029 49.9187 23.3848 49.9187C24.376 49.9187 25.1553 49.8044 25.7227 49.5735C26.2881 49.3435 26.5723 48.9275 26.5723 48.325C26.5723 47.8293 26.2266 47.3777 25.5361 46.97C24.8457 46.5632 23.6846 46.0227 22.0557 45.3494C19.7529 44.3928 17.8223 43.4631 16.2646 42.5598C14.7051 41.6565 13.3418 40.4343 12.1728 38.8933C11.0039 37.3523 10.4189 35.4661 10.4189 33.2346C10.4189 31.0383 10.9951 29.1521 12.1465 27.5754C13.2969 25.9998 14.8291 24.8044 16.7422 23.989C18.6553 23.1746 20.709 22.7668 22.9062 22.7668C25.5273 22.7668 27.9277 23.1838 30.1055 24.0154C32.2842 24.8484 34.0283 25.9548 35.3398 27.3367L30.9824 34.7756C29.8838 33.8191 28.6445 33.0403 27.2627 32.4373C25.8818 31.8357 24.5879 31.5344 23.3848 31.5344C22.6406 31.5344 22.0644 31.6404 21.6572 31.8528C21.25 32.0657 21.0459 32.4558 21.0459 33.0217C21.0459 33.7312 21.4531 34.3328 22.2685 34.8284C23.083 35.325 24.3584 35.927 26.0937 36.635C28.2549 37.5212 30.0615 38.3801 31.5137 39.2122C32.9658 40.0452 34.2236 41.1873 35.2861 42.6394C36.3496 44.0925 36.8809 45.8806 36.8809 48.0061C36.8809 50.0964 36.2695 51.9031 35.0478 53.426C33.8252 54.9495 32.2129 56.1008 30.2119 56.8796C28.21 57.6585 26.0586 58.0486 23.7559 58.0486C20.4258 58.0486 17.4238 57.5788 14.75 56.6404Z" fill="white"/>
<path d="M48.0146 55.7903C45.3047 54.321 43.2139 52.2302 41.7441 49.5203C40.2744 46.8103 39.5391 43.6672 39.5391 40.0891C39.5391 36.7239 40.3096 33.7395 41.8506 31.1355C43.3916 28.532 45.5254 26.4954 48.2539 25.0251C50.9805 23.5554 54.0625 22.8201 57.499 22.8201C60.3682 22.8201 62.9805 23.2634 65.3369 24.1482C67.6914 25.0344 69.5781 26.2566 70.9951 27.8147L65.2031 34.9348C64.3535 34.1204 63.2725 33.447 61.9619 32.9158C60.6514 32.3845 59.3232 32.1189 57.9775 32.1189C55.4619 32.1189 53.5312 32.7922 52.1855 34.1379C50.8389 35.4846 50.166 37.468 50.166 40.0891C50.166 42.9236 50.8477 45.1457 52.2119 46.7576C53.5752 48.3699 55.5332 49.175 58.084 49.175C58.792 49.175 59.5352 49.0871 60.3154 48.9094V45.5618H54.6299V37.2195H70.6768V53.426C69.5781 54.7366 67.7627 55.8259 65.2305 56.6936C62.6973 57.5613 60.1201 57.9953 57.499 57.9953C53.8857 57.9953 50.7246 57.2605 48.0146 55.7903Z" fill="#FF624A"/>
</svg>
