<svg width="20" height="27" viewBox="0 0 20 27" fill="none" xmlns="http://www.w3.org/2000/svg">
<path d="M8.68789 26.9095C8.68789 26.9095 0.38128 27.1112 0.93252 19.6763C1.22199 15.772 5.14181 14.4453 4.92471 10.6062C4.92471 10.6062 7.33714 12.1983 6.7582 14.3211C6.7582 14.3211 7.62167 14.7469 8.68789 12.1018C9.42171 10.2814 8.44676 9.6691 7.86782 7.57043C7.28888 5.47176 8.34406 2.71909 11.1664 0.675781C11.1664 0.675781 9.11969 2.62324 14.9838 8.16626C21.0868 13.9351 21.7141 24.8832 12.6681 26.9095C12.6681 26.9095 16.576 24.2319 15.5629 20.6859C15.5629 20.6859 14.3567 22.1609 11.6791 22.0886C11.6791 22.0886 10.859 18.0083 12.234 15.982C12.234 15.982 6.39623 17.7259 5.69668 21.9921C5.69668 21.9921 4.65942 24.7421 8.68789 26.9095Z" fill="#FF624A"/>
</svg>
